PathFileType	3	(X/Y/Z)	D:\minhoCalibration\240510\subject2_KPNP\preferred\preferred20.trc
DataRate	CameraRate	NumFrames	NumMarkers	Units	OrigDataRate	OrigDataStartFrame	OrigNumFrames
200.0	200.0	15	10	mm	200.0	493	176	
Frame#	Time	Left_Ankle_Outer1			Left_Ankle_Inner1			Left_Knee_Outer1			Left_Knee_Inner1			Left_Wrist1			Right_Wrist1			Right_Knee_Inner1			Right_Knee_Outer1			Right_Ankle_Inner1			Right_Ankle_Outer1			
		X1	Y1	Z1	X2	Y2	Z2	X3	Y3	Z3	X4	Y4	Z4	X5	Y5	Z5	X6	Y6	Z6	X7	Y7	Z7	X8	Y8	Z8	X9	Y9	Z9	X10	Y10	Z10	
493	2.455	-717.49774	107.70525	-660.36859	-720.48779	117.96701	-604.35114	-510.69827	505.74667	-734.22803	-524.52295	495.2525	-635.27216	-608.43274	959.84119	-834.25165	-706.02942	1121.3336	-537.08423	-653.37488	818.40942	-138.65785	-695.20923	914.86707	-131.46985	-968.65387	733.52515	-414.9924	-1013.3638	820.05255	-387.30167
494	2.46	-716.66858	109.45196	-658.25006	-718.46936	119.77732	-602.7923	-510.06705	506.39319	-736.8833	-519.81018	495.63806	-638.10638	-615.57819	957.95209	-835.01984	-700.50781	1124.2803	-536.39172	-629.06171	832.33887	-134.78421	-667.18323	930.0517	-128.34404	-965.93298	747.19153	-384.50449	-1005.7233	836.25134	-357.09363
495	2.465	-715.86609	111.27301	-656.51935	-716.70605	121.04754	-601.89691	-510.29169	507.08197	-738.8374	-515.56903	496.27179	-640.97284	-622.86719	955.89777	-835.30109	-694.21594	1128.0469	-536.01892	-604.73743	846.11603	-132.78059	-639.21393	944.72449	-127.33514	-961.55847	760.45435	-353.59488	-997.42261	851.64227	-327.40164
496	2.47	-715.13519	113.33778	-655.47614	-715.50354	123.1144	-599.67804	-510.3497	508.13568	-740.88104	-511.95853	497.12918	-643.68921	-630.43982	953.71265	-835.00476	-687.98273	1130.8396	-535.33234	-580.86731	859.26025	-132.35397	-611.9704	958.61761	-127.82091	-956.51587	774.33929	-319.96091	-988.04669	867.43414	-294.70343
497	2.475	-714.30524	114.7877	-654.54773	-713.40967	124.84724	-598.93414	-510.97183	509.20248	-742.32007	-509.12857	498.21738	-645.90948	-637.90674	951.49304	-834.41553	-682.39868	1133.3517	-535.07068	-557.6004	871.94293	-133.1729	-585.52826	971.27893	-130.32443	-949.45111	788.00964	-285.32571	-976.94305	882.9223	-261.81525
498	2.48	-713.63232	116.0888	-654.13257	-712.36206	126.85716	-597.21252	-512.12122	510.34933	-743.12372	-507.26999	499.46835	-647.4281	-645.26538	949.27905	-833.38672	-677.45007	1135.8619	-535.15076	-535.13684	884.02576	-135.85538	-560.04431	983.00177	-134.73061	-940.91742	801.66345	-247.76068	-964.8399	898.10767	-226.28783
499	2.485	-713.01801	117.12963	-653.82855	-711.64923	127.44128	-597.54565	-513.64661	511.22971	-743.46625	-506.25342	500.83078	-648.21375	-652.42157	947.07404	-831.98529	-672.58441	1138.2146	-535.38068	-513.70074	895.16913	-139.62421	-535.70416	993.44604	-140.79935	-929.86945	815.83722	-207.88231	-950.3584	913.70807	-189.09799
500	2.49	-712.5155	117.91079	-653.73627	-710.77234	127.86418	-597.98712	-514.48517	512.93915	-743.66095	-506.21991	502.15244	-648.24457	-659.25983	945.0011	-830.2334	-668.00952	1140.552	-535.79431	-493.56161	905.48627	-144.94774	-513.50073	1002.6448	-148.03035	-915.68488	830.00714	-168.69496	-933.3551	928.96576	-152.27658
501	2.495	-712.2309	118.4584	-653.66772	-710.04187	128.31033	-598.45068	-515.79816	514.1405	-743.31165	-506.93674	503.40729	-647.58264	-665.68231	943.03455	-828.09601	-663.86029	1142.9316	-536.36456	-475.05795	914.59412	-150.54126	-493.11716	1010.5981	-156.32788	-898.45294	844.60376	-126.78048	-913.74469	944.5567	-113.6323
502	2.5	-711.97443	118.56278	-653.39569	-710.23914	128.32999	-598.39984	-517.0564	515.44598	-742.44244	-508.32422	504.5386	-646.33698	-671.68506	941.25269	-825.84564	-659.83813	1145.3552	-537.09338	-458.0119	922.56158	-157.26691	-474.56473	1017.4528	-165.51685	-878.349	858.67633	-84.805473	-891.18707	959.78607	-74.880806
503	2.505	-712.20856	118.76764	-653.508	-710.02936	128.45354	-598.36829	-518	516.8407	-741.41339	-510.25015	505.55981	-644.57288	-676.9068	939.6593	-823.43481	-656.02057	1147.8118	-538.19562	-443.69601	929.13959	-163.53772	-458.80093	1023.2996	-174.34854	-854.85352	873.62891	-43.17841	-865.6889	975.40552	-35.901264
504	2.51	-712.41058	118.65509	-653.28131	-710.67578	129.30283	-596.07843	-519.8432	517.76807	-739.44189	-512.67792	506.44385	-642.34729	-681.65302	938.24799	-820.995	-652.15143	1149.8662	-540.26544	-431.07373	934.82782	-170.37576	-445.19348	1027.9281	-183.3192	-826.96808	888.85913	-2.042722	-835.70734	991.17572	2.8192747
505	2.515	-712.81824	118.33127	-652.84631	-710.79633	127.70157	-597.62897	-521.80035	518.32593	-737.27954	-515.52856	507.13654	-639.76569	-685.66687	937.16443	-818.62701	-649.58514	1152.1184	-541.44879	-420.84985	939.3656	-177.17709	-434.08484	1031.5387	-191.68053	-795.59961	903.71948	37.607239	-802.47876	1006.4672	40.772503
506	2.52	-713.36835	117.9447	-652.17145	-711.58105	127.81458	-595.64191	-523.27252	519.31329	-735.0625	-518.67743	507.66705	-636.94373	-689.047	936.43005	-816.45551	-647.32117	1154.4111	-542.85059	-412.95215	943.09839	-183.33545	-425.39642	1034.2572	-199.12059	-760.47388	918.55481	75.510513	-765.10699	1021.6536	76.985397
507	2.525	-714.08484	117.59062	-651.12006	-712.09308	127.10748	-595.09277	-524.31573	520.50403	-732.82068	-521.93323	508.10687	-634.04401	-691.80493	936.00464	-814.52136	-645.03729	1156.9847	-544.37903	-407.62189	946.11621	-188.80867	-419.09131	1036.1674	-205.53094	-721.97339	933.7074	111.50343	-724.3139	1037.1486	111.79755
